# xmcd
#
# Track frame offsets: 
#        150
#        35271
#        74059
#        108023
#        145338
#        183338
#        216502
#        254777
#        293141
#        324515
#
# Disc length: 4791 seconds
#
# Revision: 1
# Processed by: cddbd v1.5.2PL0 Copyright (c) Steve Scherf et al.
# Submitted via: ExactAudioCopy v0.99pb4
#
DISCID=a112b50a
DTITLE=Fred Vargas - Hannelore Hoger - Es geht noch ein Zug von der Ga
DTITLE=re du Nord CD3
DYEAR=2009
DGENRE=Hörbuch
TTITLE0=22 Es geht noch ein Zug
TTITLE1=23 Es geht noch ein Zug
TTITLE2=24 Es geht noch ein Zug
TTITLE3=25 Es geht noch ein Zug
TTITLE4=26 Es geht noch ein Zug
TTITLE5=27 Es geht noch ein Zug
TTITLE6=28 Es geht noch ein Zug
TTITLE7=29 Es geht noch ein Zug
TTITLE8=30 Es geht noch ein Zug
TTITLE9=31 Es geht noch ein Zug
EXTD=YEAR: 2009
EXTT0=
EXTT1=
EXTT2=
EXTT3=
EXTT4=
EXTT5=
EXTT6=
EXTT7=
EXTT8=
EXTT9=
PLAYORDER=
